<svg width="141" height="17" viewBox="0 0 141 17" fill="none" xmlns="http://www.w3.org/2000/svg">
<path d="M10.7857 8.36C11.7617 8.568 12.5457 9.056 13.1377 9.824C13.7297 10.576 14.0257 11.44 14.0257 12.416C14.0257 13.824 13.5297 14.944 12.5377 15.776C11.5617 16.592 10.1937 17 8.43366 17H0.585656V0.151999H8.16966C9.88166 0.151999 11.2177 0.543999 12.1777 1.328C13.1537 2.112 13.6417 3.176 13.6417 4.52C13.6417 5.512 13.3777 6.336 12.8497 6.992C12.3377 7.648 11.6497 8.104 10.7857 8.36ZM4.68966 6.968H7.37766C8.04966 6.968 8.56166 6.824 8.91366 6.536C9.28166 6.232 9.46566 5.792 9.46566 5.216C9.46566 4.64 9.28166 4.2 8.91366 3.896C8.56166 3.592 8.04966 3.44 7.37766 3.44H4.68966V6.968ZM7.71366 13.688C8.40166 13.688 8.92966 13.536 9.29766 13.232C9.68166 12.912 9.87366 12.456 9.87366 11.864C9.87366 11.272 9.67366 10.808 9.27366 10.472C8.88966 10.136 8.35366 9.968 7.66566 9.968H4.68966V13.688H7.71366ZM26.894 14.024H20.606L19.598 17H15.302L21.398 0.151999H26.15L32.246 17H27.902L26.894 14.024ZM25.838 10.856L23.75 4.688L21.686 10.856H25.838ZM42.6933 17L39.1893 10.64H38.2053V17H34.1013V0.151999H40.9893C42.3173 0.151999 43.4453 0.383999 44.3733 0.847999C45.3173 1.312 46.0213 1.952 46.4853 2.768C46.9493 3.568 47.1813 4.464 47.1813 5.456C47.1813 6.576 46.8613 7.576 46.2213 8.456C45.5973 9.336 44.6693 9.96 43.4373 10.328L47.3253 17H42.6933ZM38.2053 7.736H40.7493C41.5013 7.736 42.0613 7.552 42.4293 7.184C42.8133 6.816 43.0053 6.296 43.0053 5.624C43.0053 4.984 42.8133 4.48 42.4293 4.112C42.0613 3.744 41.5013 3.56 40.7493 3.56H38.2053V7.736ZM59.9575 8.36C60.9335 8.568 61.7175 9.056 62.3095 9.824C62.9015 10.576 63.1975 11.44 63.1975 12.416C63.1975 13.824 62.7015 14.944 61.7095 15.776C60.7335 16.592 59.3655 17 57.6055 17H49.7575V0.151999H57.3415C59.0535 0.151999 60.3895 0.543999 61.3495 1.328C62.3255 2.112 62.8135 3.176 62.8135 4.52C62.8135 5.512 62.5495 6.336 62.0215 6.992C61.5095 7.648 60.8215 8.104 59.9575 8.36ZM53.8615 6.968H56.5495C57.2215 6.968 57.7335 6.824 58.0855 6.536C58.4535 6.232 58.6375 5.792 58.6375 5.216C58.6375 4.64 58.4535 4.2 58.0855 3.896C57.7335 3.592 57.2215 3.44 56.5495 3.44H53.8615V6.968ZM56.8855 13.688C57.5735 13.688 58.1015 13.536 58.4695 13.232C58.8535 12.912 59.0455 12.456 59.0455 11.864C59.0455 11.272 58.8455 10.808 58.4455 10.472C58.0615 10.136 57.5255 9.968 56.8375 9.968H53.8615V13.688H56.8855ZM69.6818 3.44V6.848H75.1778V10.016H69.6818V13.712H75.8978V17H65.5778V0.151999H75.8978V3.44H69.6818ZM87.1542 17L83.6502 10.64H82.6662V17H78.5622V0.151999H85.4502C86.7782 0.151999 87.9062 0.383999 88.8342 0.847999C89.7782 1.312 90.4822 1.952 90.9462 2.768C91.4102 3.568 91.6422 4.464 91.6422 5.456C91.6422 6.576 91.3222 7.576 90.6822 8.456C90.0582 9.336 89.1302 9.96 87.8982 10.328L91.7862 17H87.1542ZM82.6662 7.736H85.2102C85.9622 7.736 86.5222 7.552 86.8902 7.184C87.2742 6.816 87.4662 6.296 87.4662 5.624C87.4662 4.984 87.2742 4.48 86.8902 4.112C86.5222 3.744 85.9622 3.56 85.2102 3.56H82.6662V7.736ZM104.418 8.36C105.394 8.568 106.178 9.056 106.77 9.824C107.362 10.576 107.658 11.44 107.658 12.416C107.658 13.824 107.162 14.944 106.17 15.776C105.194 16.592 103.826 17 102.066 17H94.2185V0.151999H101.802C103.514 0.151999 104.85 0.543999 105.81 1.328C106.786 2.112 107.274 3.176 107.274 4.52C107.274 5.512 107.01 6.336 106.482 6.992C105.97 7.648 105.282 8.104 104.418 8.36ZM98.3225 6.968H101.01C101.682 6.968 102.194 6.824 102.546 6.536C102.914 6.232 103.098 5.792 103.098 5.216C103.098 4.64 102.914 4.2 102.546 3.896C102.194 3.592 101.682 3.44 101.01 3.44H98.3225V6.968ZM101.346 13.688C102.034 13.688 102.562 13.536 102.93 13.232C103.314 12.912 103.506 12.456 103.506 11.864C103.506 11.272 103.306 10.808 102.906 10.472C102.522 10.136 101.986 9.968 101.298 9.968H98.3225V13.688H101.346ZM120.527 14.024H114.239L113.231 17H108.935L115.031 0.151999H119.783L125.879 17H121.535L120.527 14.024ZM119.471 10.856L117.383 4.688L115.319 10.856H119.471ZM136.326 17L132.822 10.64H131.838V17H127.734V0.151999H134.622C135.95 0.151999 137.078 0.383999 138.006 0.847999C138.95 1.312 139.654 1.952 140.118 2.768C140.582 3.568 140.814 4.464 140.814 5.456C140.814 6.576 140.494 7.576 139.854 8.456C139.23 9.336 138.302 9.96 137.07 10.328L140.958 17H136.326ZM131.838 7.736H134.382C135.134 7.736 135.694 7.552 136.062 7.184C136.446 6.816 136.638 6.296 136.638 5.624C136.638 4.984 136.446 4.48 136.062 4.112C135.694 3.744 135.134 3.56 134.382 3.56H131.838V7.736Z" fill="white"/>
</svg>
